<?xml version="1.0" standalone="no"?>
<!DOCTYPE svg PUBLIC "-//W3C//DTD SVG 20010904//EN"
 "http://www.w3.org/TR/2001/REC-SVG-20010904/DTD/svg10.dtd">
<svg version="1.0" xmlns="http://www.w3.org/2000/svg"
 width="700.000000pt" height="700.000000pt" viewBox="0 0 700.000000 700.000000"
 preserveAspectRatio="xMidYMid meet">
<metadata>
Created by potrace 1.11, written by Peter Selinger 2001-2013
</metadata>
<g transform="translate(0.000000,700.000000) scale(0.100000,-0.100000)"
fill="#000000" stroke="none">
<path d="M3468 6985 c-2 -2 -27 -6 -56 -9 -225 -24 -388 -169 -501 -446 -24
-58 -49 -118 -56 -135 -12 -28 -236 -582 -389 -965 -37 -91 -71 -174 -76 -185
-4 -11 -22 -54 -38 -95 -46 -119 -132 -332 -147 -365 -15 -34 -69 -168 -95
-235 -24 -62 -119 -298 -135 -335 -7 -16 -41 -100 -75 -185 -34 -85 -68 -168
-75 -185 -12 -27 -71 -172 -197 -490 -22 -55 -50 -125 -63 -155 -26 -59 -287
-708 -355 -880 -42 -107 -47 -119 -73 -180 -8 -19 -52 -127 -96 -240 -45 -113
-86 -214 -91 -225 -5 -11 -34 -81 -64 -155 -362 -901 -339 -835 -339 -970 -1
-86 1 -108 17 -176 28 -126 144 -281 262 -350 l41 -24 2635 2 2635 3 65 50
c202 154 286 415 214 665 -12 39 -174 451 -211 535 -13 29 -86 211 -175 435
-23 58 -48 119 -55 135 -7 17 -46 111 -85 210 -40 99 -78 194 -86 210 -7 17
-27 66 -44 110 -17 44 -35 90 -40 103 -19 43 -29 68 -51 122 -12 30 -27 69
-34 85 -7 17 -83 203 -168 415 -85 212 -190 471 -232 575 -42 105 -124 307
-182 450 -58 143 -185 458 -283 700 -98 242 -231 571 -295 730 -64 160 -164
407 -222 550 -58 143 -114 280 -123 305 -146 380 -269 523 -495 573 -67 15
-161 27 -167 22z"/>
</g>
</svg>
